<svg width="312" height="370" viewBox="0 0 312 370" fill="none" xmlns="http://www.w3.org/2000/svg">
<path fill-rule="evenodd" clip-rule="evenodd" d="M79.5396 44.2747C38.7179 68.6893 4.2906 89.5939 3.03723 90.7288C0.905725 92.657 0.757197 98.9538 0.757197 187.45C0.757197 261.164 1.11809 282.584 2.3858 284.255C4.82087 287.466 150.18 369.9 153.405 369.9C156.037 369.9 297.403 288.464 306.807 281.53L311.242 278.261L310.308 183.758C309.795 131.781 308.937 88.4748 308.405 87.5224C306.802 84.6599 160.628 0.127968 157.061 0.000285822C154.912 -0.0765839 127.895 15.3534 79.5396 44.2747ZM172.737 20.5909C180.978 25.4663 206.775 40.4755 230.064 53.9446C290.986 89.1783 292.684 90.2206 291.345 91.56C290.689 92.2153 259.579 110.484 222.213 132.157L154.273 171.562L86.9608 133.118C49.9395 111.973 19.4613 94.5084 19.232 94.3078C18.6991 93.84 155.697 11.5894 156.876 11.6676C157.359 11.6988 164.496 15.7156 172.737 20.5909ZM298.8 187.626L298.465 273.746L228.761 314.5C190.424 336.915 158.941 355.161 158.8 355.046C158.66 354.933 158.966 316.022 159.48 268.58C160.279 195.006 160.7 182.055 162.343 180.514C164.4 178.582 297.112 101.507 298.381 101.507C298.796 101.507 298.985 140.261 298.8 187.626ZM51.8952 125.903L89.3529 147.447V159.763C89.3529 166.538 88.837 171.885 88.2064 171.645C87.5758 171.407 70.2996 161.537 49.8145 149.714L12.5691 128.216L12.5261 116.165C12.5026 109.536 12.9222 104.168 13.4603 104.236C13.9983 104.303 31.2928 114.054 51.8952 125.903ZM18.6522 114.862C17.3168 118.728 22.5804 124.816 25.6292 122.932C27.3802 121.851 27.0753 119.397 24.7862 116.13C22.5557 112.944 19.5304 112.319 18.6522 114.862ZM34.632 126.712C34.632 130.192 38.9811 134.766 41.0644 133.479C43.1073 132.216 42.749 128.752 40.293 126.039C37.3055 122.738 34.632 123.056 34.632 126.712ZM50.4776 137.215C49.9734 139.822 53.7322 144.502 56.3315 144.502C58.7926 144.502 58.5151 139.322 55.8989 136.43C53.37 133.635 51.1082 133.963 50.4776 137.215ZM81.1865 180.712L147.934 219.418L147.844 280.653C147.795 314.332 147.366 344.663 146.891 348.055L146.028 354.221L79.2556 316.156L12.4831 278.09V209.994C12.4831 172.54 12.9222 141.921 13.4603 141.951C13.9983 141.981 44.474 159.423 81.1865 180.712ZM124.842 167.709L149.257 181.634L149.271 194.466L149.285 207.298L144.4 204.412C141.712 202.825 130.902 196.559 120.376 190.486L101.236 179.445L100.409 172.723C99.9544 169.025 99.772 163.251 100.005 159.892L100.427 153.783L124.842 167.709ZM45.7899 179.795C29.4166 183.918 20.587 202.695 24.0553 226.017C27.7281 250.714 38.8416 272.391 57.4324 291.122C79.61 313.466 101.111 319.346 115.942 307.121C127.767 297.374 131.046 278.343 124.992 254.595C116.362 220.744 88.2129 187.458 62.1332 180.265C54.4006 178.133 52.5948 178.081 45.7899 179.795ZM64.5982 190.889C92.5489 198.346 119.229 237.745 119.3 271.664C119.34 291.002 110.762 302.347 95.9598 302.533C72.1432 302.834 42.6487 272.449 34.0666 238.773C31.6771 229.398 31.3944 213.225 33.5089 206.909C38.2084 192.874 49.7506 186.926 64.5982 190.889ZM48.6106 202.928C42.9613 206.216 39.4722 214.839 39.5374 225.354C39.6989 250.972 60.4837 281.282 82.3877 287.838C99.9974 293.11 111.731 277.897 107.654 255.081C105.274 241.762 96.451 224.818 86.7836 215C72.6813 200.676 59.5926 196.538 48.6106 202.928ZM68.8886 211.779C77.5097 214.385 89.005 226.013 94.6661 237.856C99.9492 248.91 101.45 263.865 97.9532 270.626C95.6328 275.114 89.9158 278.715 85.1837 278.67C80.8204 278.628 72.2982 274.449 66.8822 269.693C50.0829 254.943 42.0571 224.857 52.2847 214.972C57.2279 210.197 61.156 209.441 68.8886 211.779Z" fill="black"/>
</svg>
