<svg width="1440" height="874" viewBox="0 0 1440 874" fill="none" xmlns="http://www.w3.org/2000/svg">
<g clip-path="url(#clip0_204_3)">
<path d="M3213 668.814C3126.72 706.239 2736.71 1031.28 1479.02 693.395C221.321 355.508 -151.867 472.571 -350 795.626" stroke="#83AF93" stroke-width="1.22768" stroke-miterlimit="10"/>
<path d="M3210.6 681.35C3128.44 716.993 2731.85 1022.96 1485.33 681.07C238.805 339.177 -149.417 499.085 -338.129 806.749" stroke="#83AF93" stroke-width="1.22768" stroke-miterlimit="10"/>
<path d="M3208.2 693.868C3130.16 727.729 2726.97 1014.64 1491.62 668.712C256.272 322.783 -147.002 525.565 -326.275 817.853" stroke="#83AF93" stroke-width="1.22768" stroke-miterlimit="10"/>
<path d="M3205.81 706.399C3131.86 738.478 2722.1 1006.32 1497.91 656.366C273.72 306.416 -144.588 552.059 -314.421 828.955" stroke="#83AF93" stroke-width="1.22768" stroke-miterlimit="10"/>
<path d="M3203.41 718.935C3133.58 749.232 2717.22 998.011 1504.21 644.041C291.188 290.07 -142.172 578.572 -302.566 840.092" stroke="#83AF93" stroke-width="1.22768" stroke-miterlimit="10"/>
<path d="M3201.03 731.453C3135.29 759.967 2712.36 989.674 1510.53 631.682C308.705 273.69 -139.723 605.053 -290.679 851.181" stroke="#83AF93" stroke-opacity="0.513726" stroke-width="1.22768" stroke-miterlimit="10"/>
<path d="M3198.63 743.989C3137.01 770.721 2707.48 981.354 1516.82 619.342C326.171 257.329 -137.309 631.552 -278.825 862.303" stroke="#83AF93" stroke-width="1.22768" stroke-miterlimit="10"/>
<path d="M3196.23 756.521C3138.71 781.471 2702.6 973.045 1523.12 607.011C343.636 240.978 -134.894 658.061 -266.972 873.421" stroke="#83AF93" stroke-width="1.22768" stroke-miterlimit="10"/>
<path d="M3193.83 769.057C3140.43 792.225 2697.73 964.726 1529.41 594.671C361.086 224.617 -132.461 684.56 -255.134 884.544" stroke="#83AF93" stroke-width="1.22768" stroke-miterlimit="10"/>
<path d="M3191.44 781.575C3142.13 802.961 2692.85 956.402 1535.72 582.313C378.589 208.223 -130.027 711.04 -243.261 895.633" stroke="#83AF93" stroke-width="1.22768" stroke-miterlimit="10"/>
<path d="M3189.04 794.109C3143.85 813.712 2687.97 948.081 1542.01 569.985C396.055 191.889 -127.613 737.551 -231.407 906.767" stroke="#83AF93" stroke-width="1.22768" stroke-miterlimit="10"/>
<path d="M3186.66 806.643C3145.58 824.464 2683.13 939.774 1548.32 557.642C413.52 175.511 -125.182 764.048 -219.538 917.873" stroke="#83AF93" stroke-width="1.22768" stroke-miterlimit="10"/>
<path d="M3184.26 819.162C3147.28 835.202 2678.24 931.438 1554.61 545.285C430.986 159.133 -122.768 790.53 -207.684 928.978" stroke="#83AF93" stroke-width="1.22768" stroke-miterlimit="10"/>
<path d="M3181.86 831.699C3149 845.956 2673.36 923.134 1560.93 532.96C448.487 142.787 -120.334 817.029 -195.812 940.101" stroke="#83AF93" stroke-width="1.22768" stroke-miterlimit="10"/>
<path d="M3179.46 844.231C3150.7 856.707 2668.48 914.811 1567.22 520.616C465.952 126.422 -117.904 843.524 -183.96 951.219" stroke="#83AF93" stroke-opacity="0.513726" stroke-width="1.22768" stroke-miterlimit="10"/>
<path d="M3177.06 856.753C3152.42 867.446 2663.62 906.491 1573.51 508.261C483.402 110.031 -115.489 870.009 -172.105 962.312" stroke="#83AF93" stroke-width="1.22768" stroke-miterlimit="10"/>
<path d="M3174.67 869.285C3154.12 878.196 2658.74 898.167 1579.8 495.917C500.868 93.6658 -113.056 896.518 -160.234 973.43" stroke="#83AF93" stroke-width="1.22768" stroke-miterlimit="10"/>
<path d="M3172.29 881.817C3155.86 888.946 2653.87 889.844 1586.13 483.587C518.387 77.33 -110.64 923.013 -148.379 984.549" stroke="#83AF93" stroke-width="1.22768" stroke-miterlimit="10"/>
<path d="M3169.89 894.351C3157.56 899.698 2649.01 881.538 1592.42 471.245C535.835 60.9524 -108.21 949.51 -136.51 995.654" stroke="#83AF93" stroke-width="1.22768" stroke-miterlimit="10"/>
<path d="M3167.49 906.873C3159.27 910.437 2644.13 873.204 1598.71 458.89C553.301 44.5765 -105.795 976.009 -124.655 1006.78" stroke="#83AF93" stroke-width="1.22768" stroke-miterlimit="10"/>
<path d="M3162.69 931.939C3162.69 931.939 2634.37 856.573 1611.32 434.218C588.268 11.8625 -100.93 1029 -100.93 1029" stroke="#83AF93" stroke-width="1.22768" stroke-miterlimit="10"/>
<path d="M3152.05 884.734C3148.03 888.563 2595.27 887.827 1608.02 473.395C620.77 58.9639 -42.985 921.747 -97.9692 935.179" stroke="#83AF93" stroke-width="1.22768" stroke-miterlimit="10"/>
<path d="M3146.72 861.137C3140.7 866.881 2575.71 903.452 1606.38 492.997C637.061 82.5427 -14.007 868.148 -96.4917 888.267" stroke="#83AF93" stroke-width="1.22768" stroke-miterlimit="10"/>
<path d="M3141.4 837.547C3133.39 845.206 2556.15 919.099 1604.73 512.592C653.32 106.084 14.9904 814.526 -94.9948 841.362" stroke="#83AF93" stroke-width="1.22768" stroke-miterlimit="10"/>
<path d="M3136.08 813.948C3126.06 823.521 2536.59 934.722 1603.08 532.191C669.579 129.66 43.9702 760.91 -93.5157 794.462" stroke="#83AF93" stroke-width="1.22768" stroke-miterlimit="10"/>
<path d="M3130.74 790.353C3118.71 801.841 2517.03 950.364 1601.44 551.78C685.838 153.197 72.9338 707.284 -92.0356 747.552" stroke="#83AF93" stroke-width="1.22768" stroke-miterlimit="10"/>
<path d="M3114.77 719.556C3096.72 736.788 2458.36 997.247 1596.49 610.565C734.616 223.882 159.875 546.436 -87.5788 606.838" stroke="#83AF93" stroke-width="1.22768" stroke-miterlimit="10"/>
<path d="M3109.44 695.96C3089.39 715.107 2438.8 1012.87 1594.85 630.153C750.906 247.432 188.853 492.81 -86.0843 559.928" stroke="#83AF93" stroke-width="1.22768" stroke-miterlimit="10"/>
<path d="M3104.12 672.363C3082.06 693.425 2419.24 1028.51 1593.2 649.755C767.166 270.996 217.835 439.211 -84.6035 513.03" stroke="#83AF93" stroke-width="1.22768" stroke-miterlimit="10"/>
<path d="M3098.78 648.77C3074.73 671.747 2399.68 1044.14 1591.54 669.346C783.391 294.549 246.798 385.586 -83.141 466.107" stroke="#83AF93" stroke-width="1.22768" stroke-miterlimit="10"/>
<path d="M3093.46 625.174C3067.4 650.065 2380.12 1059.78 1589.9 688.948C799.683 318.113 275.795 331.973 -81.645 419.21" stroke="#83AF93" stroke-width="1.22768" stroke-miterlimit="10"/>
<path d="M3088.13 601.575C3060.07 628.381 2360.57 1075.41 1588.26 708.533C815.943 341.66 304.759 278.342 -80.1642 372.296" stroke="#83AF93" stroke-width="1.22768" stroke-miterlimit="10"/>
<path d="M3082.81 577.984C3052.74 606.705 2341.01 1091.04 1586.61 728.142C832.202 365.245 333.739 224.75 -78.6845 325.405" stroke="#83AF93" stroke-width="1.22768" stroke-miterlimit="10"/>
<path d="M3077.49 554.388C3045.41 585.023 2321.45 1106.68 1584.97 747.729C848.493 388.78 362.735 171.122 -77.1896 278.493" stroke="#83AF93" stroke-width="1.22768" stroke-miterlimit="10"/>
<path d="M3072.16 530.777C3038.08 563.327 2301.91 1122.29 1583.32 767.317C864.736 412.345 391.716 117.494 -75.7093 231.582" stroke="#83AF93" stroke-width="1.22768" stroke-miterlimit="10"/>
<path d="M3066.82 507.184C3030.73 541.649 2282.33 1137.93 1581.66 786.908C880.977 435.883 420.662 63.8699 -74.2298 184.673" stroke="#83AF93" stroke-width="1.22768" stroke-miterlimit="10"/>
<path d="M3061.5 483.588C3023.42 519.967 2262.77 1153.56 1580.02 806.511C897.27 459.462 449.659 10.2717 -72.7333 137.777" stroke="#83AF93" stroke-width="1.22768" stroke-miterlimit="10"/>
<path d="M3056.18 459.992C3016.09 498.286 2243.22 1169.19 1578.37 826.099C913.53 483.013 478.64 -43.3556 -71.2529 90.8655" stroke="#83AF93" stroke-width="1.22768" stroke-miterlimit="10"/>
<path d="M3050.85 436.398C3008.76 476.607 2223.66 1184.83 1576.72 845.704C929.789 506.58 507.621 -96.9661 -69.7726 43.9565" stroke="#83AF93" stroke-width="1.22768" stroke-miterlimit="10"/>
</g>
<defs>
<clipPath id="clip0_204_3">
<rect width="1440" height="874" fill="white"/>
</clipPath>
</defs>
</svg>
