<svg width="1440" height="874" viewBox="0 0 1440 874" fill="none" xmlns="http://www.w3.org/2000/svg">
<g clip-path="url(#clip0_204_3)">
<path d="M-379 360.186C-329.19 322.761 -104.03 -2.28263 622.067 335.605C1348.16 673.492 1563.61 556.429 1678 233.374" stroke="#83AF93" stroke-width="1.22768" stroke-miterlimit="10"/>
<path d="M-377.616 347.65C-330.182 312.007 -101.222 6.03626 618.424 347.93C1338.07 689.823 1562.2 529.915 1671.15 222.251" stroke="#83AF93" stroke-width="1.22768" stroke-miterlimit="10"/>
<path d="M-376.231 335.132C-331.173 301.271 -98.4035 14.3594 614.791 360.288C1327.99 706.217 1560.81 503.435 1664.3 211.147" stroke="#83AF93" stroke-width="1.22768" stroke-miterlimit="10"/>
<path d="M-374.847 322.601C-332.155 290.522 -95.5954 22.6839 611.158 372.634C1317.91 722.584 1559.41 476.941 1657.46 200.045" stroke="#83AF93" stroke-width="1.22768" stroke-miterlimit="10"/>
<path d="M-373.462 310.065C-333.147 279.768 -92.7777 30.9887 607.525 384.959C1307.83 738.93 1558.02 450.428 1650.62 188.908" stroke="#83AF93" stroke-width="1.22768" stroke-miterlimit="10"/>
<path d="M-372.088 297.547C-334.139 269.033 -89.9696 39.3265 603.873 397.318C1297.71 755.31 1556.6 423.947 1643.75 177.819" stroke="#83AF93" stroke-opacity="0.513726" stroke-width="1.22768" stroke-miterlimit="10"/>
<path d="M-370.703 285.011C-335.13 258.279 -87.1513 47.6459 600.24 409.658C1287.63 771.671 1555.21 397.448 1636.91 166.697" stroke="#83AF93" stroke-width="1.22768" stroke-miterlimit="10"/>
<path d="M-369.319 272.479C-336.112 247.529 -84.3335 55.9551 596.607 421.989C1277.55 788.022 1553.81 370.939 1630.07 155.579" stroke="#83AF93" stroke-width="1.22768" stroke-miterlimit="10"/>
<path d="M-367.935 259.943C-337.104 236.775 -81.5255 64.2742 592.974 434.329C1267.47 804.383 1552.41 344.44 1623.23 144.456" stroke="#83AF93" stroke-width="1.22768" stroke-miterlimit="10"/>
<path d="M-366.551 247.425C-338.087 226.039 -78.7083 72.5975 589.331 446.687C1257.37 820.777 1551 317.96 1616.38 133.367" stroke="#83AF93" stroke-width="1.22768" stroke-miterlimit="10"/>
<path d="M-365.166 234.891C-339.078 215.288 -75.89 80.9192 585.698 459.015C1247.29 837.111 1549.61 291.449 1609.53 122.233" stroke="#83AF93" stroke-width="1.22768" stroke-miterlimit="10"/>
<path d="M-363.791 222.357C-340.079 204.536 -73.0912 89.2259 582.056 471.358C1237.2 853.489 1548.21 264.952 1602.68 111.127" stroke="#83AF93" stroke-width="1.22768" stroke-miterlimit="10"/>
<path d="M-362.407 209.838C-341.061 193.798 -70.2734 97.5621 578.423 483.715C1227.12 869.867 1546.81 238.47 1595.84 100.022" stroke="#83AF93" stroke-width="1.22768" stroke-miterlimit="10"/>
<path d="M-361.022 197.301C-342.053 183.044 -67.4557 105.866 574.78 496.04C1217.02 886.213 1545.41 211.971 1588.98 88.8989" stroke="#83AF93" stroke-width="1.22768" stroke-miterlimit="10"/>
<path d="M-359.637 184.769C-343.034 172.293 -64.6369 114.189 571.148 508.384C1206.93 902.578 1544.01 185.476 1582.14 77.7805" stroke="#83AF93" stroke-opacity="0.513726" stroke-width="1.22768" stroke-miterlimit="10"/>
<path d="M-358.253 172.247C-344.026 161.554 -61.8289 122.509 567.515 520.739C1196.86 918.969 1542.61 158.991 1575.3 66.6877" stroke="#83AF93" stroke-width="1.22768" stroke-miterlimit="10"/>
<path d="M-356.869 159.715C-345.008 150.804 -59.0116 130.833 563.881 533.083C1186.77 935.334 1541.21 132.482 1568.44 55.5698" stroke="#83AF93" stroke-width="1.22768" stroke-miterlimit="10"/>
<path d="M-355.495 147.183C-346.01 140.054 -56.2041 139.156 560.228 545.413C1176.66 951.67 1539.81 105.987 1561.6 44.4514" stroke="#83AF93" stroke-width="1.22768" stroke-miterlimit="10"/>
<path d="M-354.11 134.649C-346.991 129.302 -53.3951 147.462 556.596 557.755C1166.59 968.048 1538.41 79.4902 1554.75 33.3457" stroke="#83AF93" stroke-width="1.22768" stroke-miterlimit="10"/>
<path d="M-352.725 122.127C-347.983 118.563 -50.5769 155.796 552.964 570.11C1156.5 984.423 1537.01 52.9913 1547.9 22.2234" stroke="#83AF93" stroke-width="1.22768" stroke-miterlimit="10"/>
<path d="M-351.341 109.598C-348.965 107.816 -47.7591 164.108 549.331 582.442C1146.42 1000.78 1535.61 26.4994 1541.06 11.1228" stroke="#83AF93" stroke-width="1.22768" stroke-miterlimit="10"/>
<path d="M-349.957 97.061C-349.957 97.061 -44.9413 172.427 545.688 594.782C1136.32 1017.14 1534.21 0 1534.21 0" stroke="#83AF93" stroke-width="1.22768" stroke-miterlimit="10"/>
<path d="M-346.883 120.654C-345.725 118.739 -33.6597 156.783 546.64 575.176C1126.94 993.57 1517.48 53.6244 1533.35 46.9082" stroke="#83AF93" stroke-width="1.22768" stroke-miterlimit="10"/>
<path d="M-343.811 144.266C-341.494 140.437 -22.3692 141.173 547.592 555.605C1117.55 970.036 1500.75 107.253 1532.5 93.821" stroke="#83AF93" stroke-width="1.22768" stroke-miterlimit="10"/>
<path d="M-340.737 167.863C-337.261 162.119 -11.0768 125.548 548.535 536.003C1108.15 946.457 1484.02 160.852 1531.64 140.733" stroke="#83AF93" stroke-width="1.22768" stroke-miterlimit="10"/>
<path d="M-337.664 191.453C-333.039 183.794 0.214651 109.901 549.488 516.408C1098.76 922.916 1467.28 214.474 1530.78 187.638" stroke="#83AF93" stroke-width="1.22768" stroke-miterlimit="10"/>
<path d="M-334.59 215.052C-328.807 205.479 11.5061 94.2783 550.44 496.809C1089.37 899.34 1450.55 268.09 1529.93 234.538" stroke="#83AF93" stroke-width="1.22768" stroke-miterlimit="10"/>
<path d="M-331.507 238.647C-324.566 227.159 22.7975 78.6362 551.392 477.22C1079.99 875.803 1433.83 321.716 1529.07 281.448" stroke="#83AF93" stroke-width="1.22768" stroke-miterlimit="10"/>
<path d="M-328.435 262.238C-320.334 248.835 34.0883 63.0055 552.344 457.627C1070.6 852.248 1417.1 375.324 1528.22 328.355" stroke="#83AF93" stroke-width="1.22768" stroke-miterlimit="10"/>
<path d="M-325.361 285.835C-316.102 270.518 45.3802 47.3656 553.297 438.025C1061.21 828.685 1400.37 428.938 1527.35 375.252" stroke="#83AF93" stroke-width="1.22768" stroke-miterlimit="10"/>
<path d="M-322.288 309.444C-311.871 292.212 56.6712 31.7527 554.249 418.435C1051.83 805.118 1383.64 482.564 1526.5 422.162" stroke="#83AF93" stroke-width="1.22768" stroke-miterlimit="10"/>
<path d="M-319.214 333.04C-307.638 313.893 67.9637 16.126 555.193 398.847C1042.42 781.568 1366.91 536.19 1525.64 469.072" stroke="#83AF93" stroke-width="1.22768" stroke-miterlimit="10"/>
<path d="M-316.141 356.637C-303.406 335.575 79.2546 0.486091 556.145 379.245C1033.04 758.004 1350.18 589.789 1524.78 515.97" stroke="#83AF93" stroke-width="1.22768" stroke-miterlimit="10"/>
<path d="M-313.058 380.23C-299.174 357.253 90.5463 -15.1427 557.107 359.654C1023.67 734.451 1333.46 643.414 1523.94 562.893" stroke="#83AF93" stroke-width="1.22768" stroke-miterlimit="10"/>
<path d="M-309.985 403.826C-294.943 378.935 101.837 -30.7833 558.05 340.052C1014.26 710.887 1316.71 697.027 1523.07 609.79" stroke="#83AF93" stroke-width="1.22768" stroke-miterlimit="10"/>
<path d="M-306.912 427.425C-290.711 400.619 113.128 -46.4062 559.001 320.467C1004.87 687.34 1299.99 750.658 1522.22 656.704" stroke="#83AF93" stroke-width="1.22768" stroke-miterlimit="10"/>
<path d="M-303.839 451.016C-286.48 422.295 124.42 -62.0379 559.954 300.858C995.488 663.755 1283.26 804.25 1521.36 703.595" stroke="#83AF93" stroke-width="1.22768" stroke-miterlimit="10"/>
<path d="M-300.764 474.612C-282.246 443.977 135.713 -77.6782 560.898 281.271C986.083 640.22 1266.52 857.878 1520.5 750.507" stroke="#83AF93" stroke-width="1.22768" stroke-miterlimit="10"/>
<path d="M-297.692 498.223C-278.015 465.673 146.993 -93.2894 561.849 261.683C976.706 616.655 1249.79 911.506 1519.65 797.418" stroke="#83AF93" stroke-width="1.22768" stroke-miterlimit="10"/>
<path d="M-294.608 521.816C-273.773 487.351 158.295 -108.933 562.812 242.092C967.329 593.117 1233.08 965.13 1518.79 844.327" stroke="#83AF93" stroke-width="1.22768" stroke-miterlimit="10"/>
<path d="M-291.535 545.412C-269.551 509.033 169.586 -124.559 563.755 222.489C957.923 569.538 1216.34 1018.73 1517.93 891.223" stroke="#83AF93" stroke-width="1.22768" stroke-miterlimit="10"/>
<path d="M-288.462 569.008C-265.32 530.714 180.877 -140.186 564.707 202.901C948.536 545.987 1199.61 1072.36 1517.07 938.135" stroke="#83AF93" stroke-width="1.22768" stroke-miterlimit="10"/>
<path d="M-285.39 592.602C-261.089 552.393 192.168 -155.828 565.659 183.296C939.149 522.42 1182.88 1125.97 1516.22 985.044" stroke="#83AF93" stroke-width="1.22768" stroke-miterlimit="10"/>
</g>
<defs>
<clipPath id="clip0_204_3">
<rect width="1440" height="874" fill="white"/>
</clipPath>
</defs>
</svg>
