<svg width="59" height="70" viewBox="0 0 59 70" fill="none" xmlns="http://www.w3.org/2000/svg">
<path fill-rule="evenodd" clip-rule="evenodd" d="M43.8475 8.37855C51.5726 12.9988 58.0876 16.9548 58.3248 17.1695C58.7282 17.5344 58.7563 18.7261 58.7563 35.4731C58.7563 49.4228 58.688 53.4762 58.4481 53.7926C57.9873 54.4001 30.4794 70 29.8692 70C29.3711 70 2.61893 54.589 0.839283 53.2768L0 52.6582L0.176784 34.7744C0.273927 24.9383 0.436162 16.743 0.537004 16.5628C0.840269 16.0211 28.5022 0.0242167 29.1773 5.40891e-05C29.5839 -0.0144928 34.6968 2.90548 43.8475 8.37855ZM26.2107 3.89664C24.6513 4.81925 19.7694 7.65959 15.3622 10.2085C3.83322 16.8761 3.51196 17.0734 3.76542 17.3268C3.88944 17.4509 9.77673 20.9081 16.848 25.0095L29.705 32.4664L42.4431 25.1912C49.449 21.1899 55.2167 17.8848 55.2601 17.8468C55.3609 17.7583 29.4355 2.19318 29.2123 2.20797C29.1209 2.21389 27.7702 2.97402 26.2107 3.89664ZM2.35462 35.5064L2.41799 51.8038L15.6088 59.5161C22.8637 63.7579 28.8215 67.2107 28.8482 67.189C28.8748 67.1675 28.8169 59.8041 28.7195 50.8262C28.5683 36.9029 28.4887 34.4521 28.1778 34.1605C27.7885 33.7948 2.67391 19.2093 2.43377 19.2093C2.35536 19.2093 2.31961 26.5431 2.35462 35.5064ZM49.0789 23.8258L41.9904 27.9029V30.2336C41.9904 31.5157 42.088 32.5275 42.2074 32.4822C42.3267 32.437 45.5961 30.5694 49.4727 28.3319L56.521 24.2637L56.5291 21.9831C56.5336 20.7286 56.4542 19.7128 56.3524 19.7256C56.2505 19.7384 52.9777 21.5836 49.0789 23.8258ZM55.3698 21.7365C55.6225 22.4681 54.6264 23.6202 54.0495 23.2637C53.7181 23.059 53.7758 22.5948 54.209 21.9764C54.6311 21.3736 55.2036 21.2552 55.3698 21.7365ZM52.3458 23.979C52.3458 24.6375 51.5228 25.5031 51.1285 25.2595C50.7419 25.0206 50.8097 24.3651 51.2745 23.8517C51.8399 23.2269 52.3458 23.2871 52.3458 23.979ZM49.3472 25.9666C49.4426 26.46 48.7313 27.3456 48.2394 27.3456C47.7736 27.3456 47.8262 26.3653 48.3212 25.818C48.7998 25.2891 49.2278 25.3512 49.3472 25.9666ZM43.5358 34.1979L30.9045 41.5227L30.9215 53.1108C30.9308 59.4843 31.012 65.2242 31.1019 65.866L31.2652 67.0329L43.9012 59.8295L56.5373 52.6259V39.7393C56.5373 32.6515 56.4542 26.8572 56.3524 26.8629C56.2505 26.8685 50.4833 30.1692 43.5358 34.1979ZM35.2744 31.7373L30.6542 34.3725L30.6515 36.8008L30.6488 39.2292L31.5734 38.6831C32.082 38.3828 34.1277 37.1968 36.1196 36.0476L39.7416 33.9583L39.8981 32.6861C39.9842 31.9863 40.0187 30.8936 39.9745 30.258L39.8947 29.1019L35.2744 31.7373ZM50.2343 34.0244C53.3328 34.8047 55.0037 38.3581 54.3474 42.7715C53.6523 47.4452 51.5492 51.5474 48.0311 55.0919C43.8342 59.3204 39.7652 60.4331 36.9587 58.1196C34.7209 56.2752 34.1003 52.6737 35.2461 48.1797C36.8793 41.7737 42.2061 35.4746 47.1415 34.1134C48.6048 33.71 48.9465 33.7001 50.2343 34.0244ZM46.675 36.1238C41.3856 37.5351 36.3366 44.991 36.3233 51.4098C36.3156 55.0692 37.939 57.2163 40.7401 57.2515C45.2472 57.3085 50.8287 51.5583 52.4528 45.1855C52.905 43.4113 52.9585 40.3508 52.5583 39.1555C51.669 36.4996 49.4848 35.374 46.675 36.1238ZM49.7005 38.4022C50.7696 39.0243 51.4298 40.6563 51.4175 42.646C51.3869 47.494 47.4536 53.2299 43.3085 54.4706C39.976 55.4682 37.7555 52.5894 38.527 48.2717C38.9775 45.7511 40.6472 42.5446 42.4766 40.6866C45.1453 37.9759 47.6223 37.1929 49.7005 38.4022ZM45.8631 40.0771C44.2316 40.5702 42.0562 42.7707 40.9849 45.0119C39.9852 47.1037 39.7011 49.934 40.3629 51.2133C40.802 52.0627 41.8839 52.7442 42.7794 52.7356C43.6051 52.7277 45.2178 51.9367 46.2428 51.0368C49.4219 48.2455 50.9407 42.552 49.0052 40.6814C48.0698 39.7778 47.3264 39.6348 45.8631 40.0771Z" fill="black"/>
</svg>
