<svg width="361" height="83" viewBox="0 0 361 83" fill="none" xmlns="http://www.w3.org/2000/svg">
<path d="M96.752 63.768C93.7653 63.768 91.0987 63.0427 88.752 61.592C86.4053 60.1413 84.5493 58.1573 83.184 55.64C81.8187 53.1227 81.136 50.264 81.136 47.064C81.136 43.864 81.8187 41.0267 83.184 38.552C84.5493 36.0347 86.4053 34.072 88.752 32.664C91.0987 31.2133 93.7653 30.488 96.752 30.488C99.1413 30.488 101.232 30.936 103.024 31.832C104.816 32.728 106.267 33.9867 107.376 35.608V16.92H115.568V63H108.272L107.376 58.456C106.352 59.864 104.987 61.1013 103.28 62.168C101.616 63.2347 99.44 63.768 96.752 63.768ZM98.48 56.6C101.125 56.6 103.28 55.7253 104.944 53.976C106.651 52.184 107.504 49.9013 107.504 47.128C107.504 44.3547 106.651 42.0933 104.944 40.344C103.28 38.552 101.125 37.656 98.48 37.656C95.8773 37.656 93.7227 38.5307 92.016 40.28C90.3093 42.0293 89.456 44.2907 89.456 47.064C89.456 49.8373 90.3093 52.12 92.016 53.912C93.7227 55.704 95.8773 56.6 98.48 56.6ZM131.014 63.768C128.283 63.768 126.043 63.3413 124.294 62.488C122.545 61.592 121.243 60.4187 120.39 58.968C119.537 57.5173 119.11 55.9173 119.11 54.168C119.11 51.224 120.262 48.8347 122.566 47C124.87 45.1653 128.326 44.248 132.934 44.248H140.998V43.48C140.998 41.304 140.379 39.704 139.142 38.68C137.905 37.656 136.369 37.144 134.534 37.144C132.87 37.144 131.419 37.5493 130.182 38.36C128.945 39.128 128.177 40.28 127.878 41.816H119.878C120.091 39.512 120.859 37.5067 122.182 35.8C123.547 34.0933 125.297 32.792 127.43 31.896C129.563 30.9573 131.953 30.488 134.598 30.488C139.121 30.488 142.683 31.6187 145.286 33.88C147.889 36.1413 149.19 39.3413 149.19 43.48V63H142.214L141.446 57.88C140.507 59.5867 139.185 60.9947 137.478 62.104C135.814 63.2133 133.659 63.768 131.014 63.768ZM132.87 57.368C135.217 57.368 137.03 56.6 138.31 55.064C139.633 53.528 140.465 51.6293 140.806 49.368H133.83C131.654 49.368 130.097 49.7733 129.158 50.584C128.219 51.352 127.75 52.312 127.75 53.464C127.75 54.7013 128.219 55.6613 129.158 56.344C130.097 57.0267 131.334 57.368 132.87 57.368ZM166.288 63.768C163.472 63.768 160.997 63.32 158.864 62.424C156.73 61.4853 155.023 60.2053 153.743 58.584C152.463 56.9627 151.695 55.0853 151.439 52.952H159.696C159.952 54.1893 160.634 55.256 161.744 56.152C162.896 57.0053 164.368 57.432 166.16 57.432C167.951 57.432 169.253 57.0693 170.064 56.344C170.917 55.6187 171.344 54.7867 171.344 53.848C171.344 52.4827 170.746 51.5653 169.552 51.096C168.357 50.584 166.693 50.0933 164.56 49.624C163.194 49.3253 161.808 48.9627 160.399 48.536C158.992 48.1093 157.69 47.576 156.496 46.936C155.343 46.2533 154.405 45.4 153.68 44.376C152.954 43.3093 152.591 42.008 152.591 40.472C152.591 37.656 153.701 35.288 155.919 33.368C158.181 31.448 161.338 30.488 165.392 30.488C169.146 30.488 172.133 31.3627 174.352 33.112C176.613 34.8613 177.957 37.272 178.384 40.344H170.64C170.17 37.9973 168.4 36.824 165.328 36.824C163.792 36.824 162.597 37.1227 161.744 37.72C160.933 38.3173 160.528 39.064 160.528 39.96C160.528 40.8987 161.146 41.6453 162.384 42.2C163.621 42.7547 165.264 43.2667 167.312 43.736C169.53 44.248 171.557 44.824 173.392 45.464C175.269 46.0613 176.762 46.9787 177.872 48.216C178.981 49.4107 179.536 51.1387 179.536 53.4C179.578 55.3627 179.066 57.1333 178 58.712C176.933 60.2907 175.397 61.528 173.392 62.424C171.386 63.32 169.018 63.768 166.288 63.768ZM182.953 63V16.92H191.145V36.12C192.211 34.3707 193.641 33.0053 195.433 32.024C197.267 31 199.358 30.488 201.705 30.488C205.63 30.488 208.659 31.7253 210.793 34.2C212.969 36.6747 214.057 40.3013 214.057 45.08V63H205.929V45.848C205.929 43.1173 205.374 41.0267 204.265 39.576C203.198 38.1253 201.491 37.4 199.145 37.4C196.841 37.4 194.921 38.2107 193.385 39.832C191.891 41.4533 191.145 43.7147 191.145 46.616V63H182.953Z" fill="white"/>
<path d="M237.984 63.768C234.912 63.768 232.203 63.2133 229.856 62.104C227.552 60.952 225.739 59.3733 224.416 57.368C223.136 55.32 222.496 52.9093 222.496 50.136C222.496 47.1067 223.371 44.4187 225.12 42.072C226.912 39.6827 229.493 37.8053 232.864 36.44C231.413 34.8613 230.368 33.368 229.728 31.96C229.088 30.5093 228.768 28.952 228.768 27.288C228.768 24.4293 229.771 22.0827 231.776 20.248C233.824 18.3707 236.619 17.432 240.16 17.432C242.464 17.432 244.469 17.88 246.176 18.776C247.883 19.6293 249.205 20.824 250.144 22.36C251.083 23.896 251.509 25.6453 251.424 27.608H246.112C246.155 25.688 245.557 24.2373 244.32 23.256C243.125 22.2747 241.739 21.784 240.16 21.784C238.24 21.784 236.747 22.296 235.68 23.32C234.613 24.344 234.08 25.6453 234.08 27.224C234.08 28.5893 234.443 29.912 235.168 31.192C235.936 32.472 237.067 33.9013 238.56 35.48L252.704 49.752C253.941 47.96 255.285 45.8053 256.736 43.288L258.72 39.832H264.416L261.6 44.824C259.723 48.1947 257.931 51.0107 256.224 53.272L265.888 63H259.104L253.152 56.984C250.891 59.416 248.544 61.1653 246.112 62.232C243.68 63.256 240.971 63.768 237.984 63.768ZM227.872 49.944C227.872 52.5893 228.811 54.7867 230.688 56.536C232.565 58.2853 235.019 59.16 238.048 59.16C240.309 59.16 242.357 58.7333 244.192 57.88C246.069 56.984 247.904 55.5333 249.696 53.528L236.128 39.768C233.312 40.8773 231.221 42.2853 229.856 43.992C228.533 45.6987 227.872 47.6827 227.872 49.944Z" fill="white"/>
<path d="M287.816 63.768C284.659 63.768 281.885 63.0427 279.496 61.592C277.149 60.1413 275.315 58.1573 273.992 55.64C272.712 53.1227 272.072 50.264 272.072 47.064C272.072 43.864 272.733 41.0267 274.056 38.552C275.379 36.0347 277.213 34.072 279.56 32.664C281.907 31.2133 284.68 30.488 287.88 30.488C290.483 30.488 292.787 31.0213 294.792 32.088C296.797 33.1547 298.355 34.648 299.464 36.568V16.92H304.84V63H299.976L299.464 57.752C298.44 59.288 296.968 60.6747 295.048 61.912C293.128 63.1493 290.717 63.768 287.816 63.768ZM288.392 59.096C290.525 59.096 292.403 58.6053 294.024 57.624C295.688 56.6 296.968 55.192 297.864 53.4C298.803 51.608 299.272 49.5173 299.272 47.128C299.272 44.7387 298.803 42.648 297.864 40.856C296.968 39.064 295.688 37.6773 294.024 36.696C292.403 35.672 290.525 35.16 288.392 35.16C286.301 35.16 284.424 35.672 282.76 36.696C281.139 37.6773 279.859 39.064 278.92 40.856C278.024 42.648 277.576 44.7387 277.576 47.128C277.576 49.5173 278.024 51.608 278.92 53.4C279.859 55.192 281.139 56.6 282.76 57.624C284.424 58.6053 286.301 59.096 288.392 59.096ZM309.764 63V31.256H314.628L315.076 37.336C316.057 35.2453 317.55 33.5813 319.556 32.344C321.561 31.1067 324.036 30.488 326.98 30.488V36.12H325.508C323.63 36.12 321.902 36.4613 320.324 37.144C318.745 37.784 317.486 38.8933 316.548 40.472C315.609 42.0507 315.14 44.2267 315.14 47V63H309.764ZM332.629 77.08L340.502 59.928H338.646L326.037 31.256H331.862L342.358 55.96L353.494 31.256H359.062L338.262 77.08H332.629Z" fill="white"/>
<path fill-rule="evenodd" clip-rule="evenodd" d="M49.9994 10.5755C58.8084 15.8557 66.2375 20.3769 66.508 20.6223C66.9679 21.0394 67 22.4012 67 41.5408C67 57.4833 66.9221 62.1157 66.6486 62.4773C66.1231 63.1716 34.7558 81 34.0599 81C33.492 81 2.98638 63.3874 0.957036 61.8878L0 61.1808L0.201587 40.7422C0.312361 29.5009 0.497357 20.1348 0.612347 19.9289C0.958161 19.3098 32.5012 1.02768 33.271 1.00006C33.7346 0.983437 39.5648 4.32055 49.9994 10.5755ZM29.8882 5.4533C28.1099 6.50772 22.5432 9.75382 17.5176 12.6668C4.37104 20.287 4.0047 20.5124 4.29372 20.8021C4.43514 20.9438 11.1484 24.8949 19.2118 29.5823L33.8727 38.1045L48.398 29.79C56.3869 25.217 62.9638 21.4398 63.0133 21.3964C63.1283 21.2952 33.5654 3.50649 33.3109 3.5234C33.2066 3.53016 31.6665 4.39888 29.8882 5.4533ZM2.68498 41.5788L2.75724 60.2044L17.7988 69.0185C26.0716 73.8662 32.8653 77.8122 32.8957 77.7874C32.926 77.7629 32.86 69.3476 32.7489 59.0872C32.5766 43.1748 32.4857 40.3739 32.1312 40.0406C31.6873 39.6227 3.04907 22.9535 2.77523 22.9535C2.68583 22.9535 2.64506 31.335 2.68498 41.5788ZM55.9649 28.2295L47.8818 32.889V35.5527C47.8818 37.0179 47.9931 38.1743 48.1292 38.1225C48.2653 38.0709 51.9933 35.9365 56.4139 33.3793L64.4511 28.73L64.4604 26.1235C64.4654 24.6898 64.3749 23.5289 64.2588 23.5435C64.1427 23.5582 60.4107 25.667 55.9649 28.2295ZM63.1384 25.8417C63.4266 26.6778 62.2907 27.9945 61.6328 27.5871C61.255 27.3532 61.3208 26.8226 61.8148 26.1159C62.2961 25.4269 62.9489 25.2917 63.1384 25.8417ZM59.6901 28.4045C59.6901 29.1571 58.7516 30.1465 58.3021 29.8681C57.8612 29.595 57.9385 28.8458 58.4685 28.2591C59.1132 27.5451 59.6901 27.6138 59.6901 28.4045ZM56.2708 30.6762C56.3796 31.24 55.5684 32.2522 55.0075 32.2522C54.4765 32.2522 54.5363 31.1318 55.1009 30.5063C55.6466 29.9019 56.1347 29.9729 56.2708 30.6762ZM49.6441 40.0834L35.2405 48.4545L35.2599 61.6981C35.2705 68.9821 35.363 75.5419 35.4657 76.2754L35.6518 77.6091L50.0607 69.3766L64.4696 61.1439V46.4164C64.4696 38.3161 64.3749 31.694 64.2588 31.7005C64.1427 31.707 57.5663 35.4791 49.6441 40.0834ZM40.2236 37.2712L34.9551 40.2829L34.952 43.0581L34.9489 45.8334L36.0032 45.2093C36.5832 44.866 38.9159 43.5107 41.1873 42.1973L45.3174 39.8095L45.496 38.3555C45.5941 37.5558 45.6334 36.307 45.5831 35.5806L45.492 34.2593L40.2236 37.2712ZM57.2823 39.885C60.8155 40.7769 62.7209 44.8379 61.9725 49.8817C61.1799 55.2231 58.7817 59.9114 54.77 63.9622C49.9842 68.7947 45.3444 70.0664 42.1441 67.4225C39.5924 65.3145 38.8847 61.1985 40.1912 56.0625C42.0536 48.7414 48.1278 41.5425 53.7556 39.9868C55.4242 39.5258 55.8139 39.5145 57.2823 39.885ZM53.2237 42.2844C47.1921 43.8973 41.4348 52.4183 41.4196 59.7541C41.4109 63.9363 43.2619 66.39 46.4561 66.4303C51.5955 66.4954 57.9602 59.9238 59.8121 52.6406C60.3277 50.6129 60.3888 47.1152 59.9324 45.7491C58.9183 42.7138 56.4276 41.4275 53.2237 42.2844ZM56.6736 44.8883C57.8927 45.5992 58.6456 47.4643 58.6316 49.7383C58.5967 55.2789 54.1115 61.8342 49.3848 63.2521C45.5848 64.3922 43.0528 61.1022 43.9325 56.1676C44.4462 53.287 46.3501 49.6225 48.4362 47.499C51.4794 44.4011 54.3038 43.5062 56.6736 44.8883ZM52.2978 46.8024C50.4375 47.366 47.9569 49.8809 46.7353 52.4422C45.5952 54.8329 45.2713 58.0674 46.0259 59.5296C46.5267 60.5003 47.7603 61.2791 48.7815 61.2693C49.7231 61.2602 51.5621 60.3563 52.7308 59.3278C56.3559 56.1378 58.0878 49.6309 55.8808 47.4931C54.8141 46.4604 53.9664 46.2969 52.2978 46.8024Z" fill="white"/>
</svg>
